<?xml version="1.0"?><svg width="640" height="480" xmlns="http://www.w3.org/2000/svg">
 <title>fdgd</title>
 <g display="inline">
  <title>sgfdg</title>
  <rect fill="#7f0000" stroke="#000000" stroke-width="null" stroke-dasharray="null" stroke-linejoin="null" stroke-linecap="null" x="16" y="22.000014" width="596.000002" height="430.999986" id="svg_8" rx="50" ry="50"/>
  <g id="svg_10">
   <g id="svg_11">
    <path d="m173.204666,206.548141c24.683212,0 44.691238,-19.579269 44.691238,-43.730286c0,-24.154388 -20.008026,-43.737015 -44.691238,-43.737015c-24.679871,0 -44.689011,19.582626 -44.689011,43.737015c0,24.151016 20.00914,43.730286 44.689011,43.730286z" id="svg_12" fill="#ffffff"/>
    <path d="m173.204666,162.817856" id="svg_13" fill="#ffffff"/>
   </g>
   <path d="m269.704742,150.416168l178.634735,0c26.207397,0 41.645264,16.506836 41.645264,38.605835l0,63.274902l-220.279999,0l0,-101.880737z" id="svg_14" fill="#ffffff"/>
   <path d="m221.08136,173.056732l0,37.950165l-68.68161,0c-33.158012,0.116364 -33.211807,41.825958 0,41.825958l90.041138,0c13.148865,0 21.381134,-10.385468 21.381134,-22.133698l0,-57.642426c0,-31.577057 -42.740662,-31.577057 -42.740662,0z" id="svg_15" fill="#ffffff"/>
   <path d="m119.98259,113.953003c0,-34.437996 -48.824753,-34.437996 -48.824753,0l0,276.153015l49.908676,0l0,-71.317474l379.738022,0l0,70.781525l48.823456,0l0,-213.291c0,-36.343445 -49.365356,-36.343445 -49.365356,0l0,85.133347l-380.280075,0l0,-147.459412l0.000031,0z" id="svg_16" fill="#ffffff"/>
  </g>
 </g>
</svg>